<svg xmlns="http://www.w3.org/2000/svg" height="1024" preserveAspectRatio="none" style="display: block;" version="1.1" viewBox="0 0 2048 2048" width="1024">
<path d="M 0 0 L 2048 0 L 2048 2048 L 0 2048 L 0 0 z" fill="rgb(254,254,254)" transform="translate(0,0)"></path>
<path d="M 595.551 282.408 C 617.098 279.905 647.385 281.584 669.71 281.74 L 772.706 282.039 L 1122.28 282.018 L 1344.67 282.056 C 1386.84 282.013 1451.46 279.686 1491.19 286.663 C 1549.78 296.908 1604.58 322.602 1649.93 361.095 C 1718.07 418.893 1760.33 501.485 1767.35 590.559 C 1769.12 613.548 1768.39 639.117 1768.28 662.44 C 1768.13 693.661 1768.16 724.881 1768.37 756.101 L 1768.18 1125.74 L 1768.65 1348.08 C 1768.69 1383.49 1770.03 1422.36 1767.61 1457.51 C 1756.15 1624.34 1622.4 1755.67 1456.5 1768.46 C 1442.55 1769.92 1424 1769.03 1409.71 1768.99 L 1330.24 1768.82 L 1054.22 1768.6 L 752.653 1768.94 L 660.434 1768.98 C 623.485 1768.95 594.05 1769.91 557.494 1763.2 C 500.442 1752.69 447.062 1727.65 402.503 1690.5 C 333.468 1633.24 290.582 1550.44 283.632 1461.02 C 281.778 1437.79 282.437 1409.39 282.411 1385.86 L 282.063 1278.5 L 282.124 925.277 L 282.303 710.172 C 282.254 664.59 279.671 601.706 287.502 558.241 C 297.916 499.442 323.872 444.499 362.678 399.112 C 422.616 329.185 504.025 289.521 595.551 282.408 z" fill="rgb(12,130,179)" transform="translate(0,0)"></path>
<path d="M 1073.45 588.174 C 1093.03 587.144 1110.04 596.991 1109.6 617.478 C 1109.13 639.899 1070.42 670.593 1054.76 685.616 C 1101.87 685.959 1148.98 685.921 1196.08 685.504 C 1228.86 685.339 1261.64 685.431 1294.42 685.78 C 1305.07 685.852 1332.04 685.325 1340.74 687.048 C 1345.56 687.958 1349.97 690.354 1353.35 693.901 C 1364.57 705.648 1361.6 726.047 1361.66 741.652 L 1361.73 803.419 C 1362.15 868.18 1362.24 932.943 1362 997.704 C 1376.77 982.446 1397.03 958.786 1416.23 949.164 C 1430.73 941.902 1450.06 953.721 1454.96 969.031 C 1457.36 976.429 1456.52 984.496 1452.65 991.243 C 1443.99 1006.55 1397.06 1050.07 1383.57 1065.33 C 1374.98 1075.05 1359.98 1089.97 1350.47 1099.69 C 1347.28 1102.95 1341.68 1106.23 1337.4 1107.6 C 1331.91 1109.35 1321.34 1108.23 1316.99 1104.4 C 1298.81 1088.37 1280.35 1068.37 1263.21 1051.13 C 1244.43 1032.25 1226.14 1014.37 1208.04 995.129 C 1203.78 989.938 1200.56 986.606 1199.18 979.94 C 1195.9 964.126 1207.71 947.59 1223.44 945.02 C 1227.73 944.319 1238.65 945.241 1242.53 947.609 C 1263.51 960.43 1279.77 986.554 1299.16 1001 C 1300.11 931.908 1300.08 862.807 1299.06 793.717 C 1281.38 809.538 1259.62 832.846 1242.06 850.131 C 1189.64 900.917 1137.79 953.726 1085.6 1005.01 L 1045.24 1044.77 C 1038.51 1051.39 1027.05 1063.12 1019.84 1068.42 C 1014.83 1072.07 1008.9 1074.26 1002.72 1074.72 C 985.948 1075.98 973.429 1061.93 972.176 1046.04 C 970.807 1028.67 991.077 1013.62 1002.69 1001.99 L 1048.97 955.558 L 1193.48 811.879 C 1214.34 791.04 1236.36 769.732 1256.54 748.348 C 1188.61 749.366 1118.88 747.222 1051.43 748.509 C 1062.18 760.192 1073.59 771.252 1085.21 782.065 C 1098.06 794.021 1113.61 808.47 1108.6 828.025 C 1106.36 836.405 1100.7 843.456 1093 847.452 C 1086.28 851.02 1077.62 852.334 1070.34 849.679 C 1060.25 845.998 965.717 749.709 956.294 738.595 C 953.558 735.369 951.803 732.167 950.452 728.169 C 947.945 720.751 948.063 711.731 951.807 704.768 C 953.874 700.924 956.578 697.454 959.538 694.26 C 972.101 680.704 986.412 668.532 999.438 655.362 C 1018.73 635.853 1037.61 614.037 1058.63 596.461 C 1063.36 592.51 1067.53 590.011 1073.45 588.174 z" fill="rgb(254,254,254)" transform="translate(0,0)"></path>
<path d="M 920.728 779.416 C 923.276 778.95 935.026 778.626 938.264 778.473 C 952.153 793.301 966.355 807.83 980.862 822.053 C 988.045 829.223 998.154 838.744 1004.45 846.35 C 940.238 833.593 888.134 839.964 829.591 870.908 C 734.623 922.303 684.766 1030.04 707.053 1135.7 C 708.942 1145.12 711.556 1154.38 714.871 1163.4 C 720.104 1177.93 730.864 1199.96 729.751 1214.74 C 728.441 1232.13 718.652 1256.82 713.188 1274.16 C 705.093 1299.87 696.49 1325.35 688.536 1351.08 C 713.668 1339.92 810.483 1296.01 832.181 1294.14 C 851.633 1292.45 872.57 1303.36 891.144 1308.09 C 919.445 1315.22 948.814 1317.08 977.788 1313.59 C 1044.18 1306.21 1104.85 1272.52 1146.21 1220.07 C 1186.8 1168.48 1201.55 1106.91 1193.96 1042.2 C 1213.18 1063.21 1236.65 1083.27 1255.25 1105.1 C 1255.23 1111.22 1254.42 1117.16 1253.74 1123.23 C 1251.99 1137.11 1248.08 1152.11 1243.68 1165.33 C 1218.34 1243.27 1162.73 1307.73 1089.35 1344.23 C 1007.06 1385.34 924.369 1384.64 838.675 1355.9 C 772.011 1380.53 706.194 1413.47 639.872 1439.2 C 622.144 1446.08 598.356 1427.54 603.983 1406.54 C 610.301 1382.97 619.592 1359.79 627.805 1336.47 C 642.102 1295.72 655.768 1254.75 668.797 1213.57 C 620.918 1099.99 632.494 985.975 711.775 889.819 C 764.333 827.139 839.33 787.513 920.728 779.416 z" fill="rgb(254,254,254)" transform="translate(0,0)"></path>
<metadata><recraft-signature>{"signed_by": "recraft", "signature_b64": "avyqJIxNDVBRjHjyNn89LTN+Hnk0YjspqAvra4FkppXZ5St8uKsIKBmXurdlc9tmQYd1xnmJf60PbfEtV8hzBg==", "signing_algo": "Ed25519", "generation_timestamp": 1783693980, "identifier": "2dcc8098-b019-47ba-94fb-6b8983d98735"}</recraft-signature></metadata></svg>